<svg width="180" height="180" viewBox="0 0 180 180" fill="none" xmlns="http://www.w3.org/2000/svg">
  <rect width="180" height="180" rx="40" fill="#FF3C00"/>
  <defs>
    <clipPath id="pent">
      <polygon points="90,15 161.32,66.84 134.09,150.68 45.91,150.68 18.68,66.84"/>
    </clipPath>
  </defs>
  <!-- White pentagon -->
  <polygon points="90,15 161.32,66.84 134.09,150.68 45.91,150.68 18.68,66.84" fill="white"/>
  <!-- Orange rays from center to each corner and edge midpoint — creates 10-point starburst cut -->
  <g clip-path="url(#pent)" stroke="#FF3C00" stroke-width="5" stroke-linecap="butt">
    <line x1="90" y1="90" x2="90" y2="15"/>
    <line x1="90" y1="90" x2="125.68" y2="40.92"/>
    <line x1="90" y1="90" x2="161.32" y2="66.84"/>
    <line x1="90" y1="90" x2="147.72" y2="108.76"/>
    <line x1="90" y1="90" x2="134.09" y2="150.68"/>
    <line x1="90" y1="90" x2="90" y2="150.68"/>
    <line x1="90" y1="90" x2="45.91" y2="150.68"/>
    <line x1="90" y1="90" x2="32.28" y2="108.76"/>
    <line x1="90" y1="90" x2="18.68" y2="66.84"/>
    <line x1="90" y1="90" x2="54.32" y2="40.92"/>
  </g>
</svg>
